<?xml version="1.0" encoding="utf-8"?>
<!-- Svg Vector Icons : http://www.onlinewebfonts.com/icon -->
<!DOCTYPE svg PUBLIC "-//W3C//DTD SVG 1.1//EN" "http://www.w3.org/Graphics/SVG/1.1/DTD/svg11.dtd">
<svg version="1.1" xmlns="http://www.w3.org/2000/svg" xmlns:xlink="http://www.w3.org/1999/xlink" x="0px" y="0px" viewBox="0 0 1000 1000" enable-background="new 0 0 1000 1000" xml:space="preserve">
<metadata> Svg Vector Icons : http://www.onlinewebfonts.com/icon </metadata>
<g><g transform="translate(0.000000,511.000000) scale(0.100000,-0.100000)"><path d="M156.2,3741.9l-56.2-38.3V2108.6V516.1h4900h4900v1582.3c0,1549.1,0,1582.3-51,1633.3c-51,51-84.2,51-4843.8,51C709.9,3782.8,207.2,3777.6,156.2,3741.9z M2976.2,2917.6c158.2-97,127.6-313.9-48.5-347.1c-45.9-7.7-372.6-12.8-724.8-7.7c-589.5,7.7-648.2,12.8-696.7,56.1c-102.1,91.9-48.5,275.6,99.5,329.2c20.4,7.7,319,15.3,663.5,15.3C2843.5,2966.1,2902.2,2961,2976.2,2917.6z M8445.3,1702.8c135.3-68.9,135.3-262.9,0-331.8c-63.8-33.2-479.8-38.3-3445.3-38.3s-3381.5,5.1-3445.3,38.3c-132.7,68.9-135.3,260.3-5.1,329.2c58.7,33.2,507.9,38.3,3445.3,40.8C7965.5,1741.1,8381.5,1736,8445.3,1702.8z"/><path d="M151,82.2c0-89.3,209.3-951.9,242.5-1005.5c23-33.2,81.7-91.9,127.6-127.6l86.8-66.3h4412.5H9433l68.9,53.6c35.7,28.1,84.2,84.2,104.6,125.1C9637.1-877.3,9849,8.2,9849,82.2c0,17.9-1615.5,25.5-4849,25.5C1812.5,107.8,151,100.1,151,82.2z"/><path d="M6227.5-1867.6c-112.3-35.7-186.3-137.8-186.3-250.1c0-120,186.3-461.9,275.6-500.2c109.8-51,206.7-35.7,303.7,48.5c125.1,112.3,122.5,224.6-15.3,472.1c-56.2,102.1-114.8,194-127.6,204.2C6411.3-1852.2,6304.1-1842.1,6227.5-1867.6z"/><path d="M3961.3-1913.5c-81.7-86.8-237.3-398.1-237.3-469.6c0-107.2,66.4-201.6,176.1-250.1c97-45.9,104.6-45.9,199.1,0c125,61.3,313.9,377.7,313.9,528.3c0,150.6-109.7,247.6-273.1,247.6C4040.4-1857.3,4002.1-1870.1,3961.3-1913.5z"/><path d="M5086.8-1990.1c-84.2-40.8-112.3-130.2-112.3-367.5c0-214.4,2.6-222,86.8-306.3c117.4-117.4,214.4-117.4,342,0l94.4,86.8l7.7,255.2c10.2,250.1,7.6,252.7-58.7,308.8C5370.1-1954.3,5183.7-1941.6,5086.8-1990.1z"/><path d="M3583.6-2773.6c-122.5-51-293.5-354.7-293.5-520.6c0-97,12.8-125.1,79.1-181.2c181.2-153.1,334.3-102.1,487.5,163.3c117.4,204.2,132.7,367.5,40.8,451.7C3780.1-2755.7,3690.8-2730.2,3583.6-2773.6z"/><path d="M6625.7-2778.6c-58.7-33.2-120-158.2-120-239.9c0-74,178.7-444.1,237.3-495.1c66.4-53.6,206.7-61.2,293.5-17.8c86.8,45.9,158.2,155.7,158.2,247.5c0,79.1-168.4,405.8-245,477.2C6880.9-2745.5,6709.9-2730.2,6625.7-2778.6z"/><path d="M5045.9-2875.6c-81.7-71.4-84.2-81.6-91.9-303.7c-10.2-209.3-5.1-232.3,51-296.1c114.8-132.7,400.7-109.7,482.3,38.3c15.3,33.2,25.5,140.4,17.9,270.5c-7.7,206.7-10.2,219.5-91.9,290.9C5298.6-2773.6,5160.8-2773.6,5045.9-2875.6z"/></g></g>
</svg>